<svg width="34" height="34" viewBox="0 0 34 34" fill="none" xmlns="http://www.w3.org/2000/svg">
<path d="M28.3337 14.4249C28.3337 23.44 17.0003 31.1673 17.0003 31.1673C17.0003 31.1673 5.66699 23.44 5.66699 14.4249C5.66699 11.3508 6.86104 8.4026 8.98645 6.22888C11.1119 4.05517 13.9945 2.83398 17.0003 2.83398C20.0061 2.83398 22.8888 4.05517 25.0142 6.22888C27.1396 8.4026 28.3337 11.3508 28.3337 14.4249Z" stroke="#227AEB" stroke-width="2.5" stroke-linecap="round" stroke-linejoin="round"/>
<path d="M17 18.416C19.3472 18.416 21.25 16.5132 21.25 14.166C21.25 11.8188 19.3472 9.91602 17 9.91602C14.6528 9.91602 12.75 11.8188 12.75 14.166C12.75 16.5132 14.6528 18.416 17 18.416Z" stroke="#227AEB" stroke-width="2.5" stroke-linecap="round" stroke-linejoin="round"/>
</svg>
