<svg width="34" height="34" viewBox="0 0 34 34" fill="none" xmlns="http://www.w3.org/2000/svg">
<g clip-path="url(#clip0_217_1592)">
<path d="M12.2281 33.9916C11.8076 33.8248 11.3535 33.8381 10.9179 33.7459C6.48414 32.8047 3.21073 30.319 1.29548 26.2268C-1.63729 19.9603 0.55031 12.7703 6.43358 9.11013C9.22973 7.37052 12.2929 6.78504 15.5557 7.28536C17.1879 7.53552 18.7137 8.08642 20.15 8.89812C20.3371 9.00368 20.3984 9.07642 20.26 9.28312C19.9601 9.73288 19.6825 10.1986 19.4172 10.6688C19.3072 10.863 19.2309 10.8941 19.0242 10.7761C17.2802 9.78078 15.4004 9.28312 13.3911 9.29731C8.37633 9.33457 4.00912 12.6541 2.62081 17.4799C0.823538 23.7252 4.82082 30.3013 11.1947 31.5858C17.2944 32.8153 23.2415 28.9014 24.4861 22.8043C25.0441 20.0712 24.6254 17.464 23.2522 15.0271C23.1147 14.7832 23.1546 14.6909 23.3843 14.564C23.8483 14.3094 24.2981 14.0282 24.7452 13.7435C24.9048 13.6423 24.9829 13.6317 25.0894 13.8189C26.0421 15.4804 26.6347 17.2599 26.8228 19.1637C27.1341 22.32 26.4528 25.2598 24.691 27.8999C22.4289 31.2886 19.2593 33.2872 15.2123 33.8736C14.9932 33.9056 14.7564 33.863 14.5532 33.9907H12.2299L12.2281 33.9916Z" fill="white"/>
<path d="M33.9995 5.57909C33.8443 5.9295 33.5604 6.17345 33.2978 6.43604C32.1331 7.60169 30.9585 8.75847 29.8062 9.93654C29.4043 10.3473 28.9741 10.4945 28.4046 10.3845C27.5485 10.2195 26.6809 10.1157 25.8204 9.97114C25.6137 9.93654 25.4966 10.0244 25.3645 10.1565C22.516 13.0175 19.6631 15.8748 16.8119 18.7331C16.4526 19.0932 16.0996 19.4596 15.7323 19.8118C15.6081 19.9306 15.5771 20.038 15.6001 20.2136C15.7607 21.4121 15.0067 22.4793 13.8658 22.694C12.7144 22.9113 11.6091 22.1892 11.3296 21.0351C10.9748 19.5714 12.2167 18.2141 13.7532 18.4004C13.9492 18.4243 14.0734 18.3942 14.2136 18.2531C17.4293 15.0241 20.6486 11.7986 23.8715 8.57662C24.0028 8.44532 24.0356 8.32823 24.0045 8.14194C23.8537 7.22644 23.7242 6.30741 23.5885 5.38925C23.5299 4.99183 23.6346 4.64852 23.9229 4.36021C25.2616 3.02424 26.5975 1.68471 27.9362 0.348735C28.2618 0.024055 28.6476 -0.0886071 29.0894 0.067523C29.5259 0.221879 29.7636 0.535026 29.8301 0.99632C29.9508 1.83818 30.0936 2.67738 30.2098 3.51924C30.2364 3.71174 30.3039 3.7694 30.4928 3.79513C31.2921 3.90336 32.0852 4.05416 32.8853 4.14731C33.4096 4.20852 33.7902 4.42231 33.9995 4.91377V5.57732V5.57909ZM27.9841 3.37464C27.2558 4.10739 26.5807 4.78869 25.9021 5.46643C25.816 5.55248 25.832 5.64563 25.8462 5.74232C25.9375 6.36507 26.0307 6.98693 26.1229 7.60967C26.1433 7.7454 26.1717 7.83677 26.3545 7.85984C27.0003 7.94322 27.6417 8.05322 28.2839 8.16323C28.4392 8.18984 28.5297 8.12331 28.6272 8.02484C29.0539 7.59193 29.4806 7.15903 29.9171 6.73588C30.1424 6.51765 30.389 6.32071 30.6268 6.11402L30.5531 6.01466C30.0777 5.93926 29.6004 5.87095 29.1267 5.78668C28.6201 5.69619 28.3079 5.37506 28.2201 4.86498C28.1402 4.40013 28.0719 3.93263 27.985 3.37642L27.9841 3.37464Z" fill="white"/>
<path d="M13.4533 28.0161C9.0116 28.0161 5.55811 24.151 6.04246 19.7226C6.5419 15.1576 11.0945 12.0944 15.4875 13.3621C15.711 13.4268 15.7873 13.496 15.6915 13.7453C15.5025 14.2385 15.3491 14.7469 15.1983 15.2534C15.137 15.4583 15.0608 15.5231 14.8354 15.4627C11.8486 14.6706 8.88474 16.5113 8.26554 19.5337C7.6703 22.4389 9.71418 25.346 12.6478 25.7682C16.0428 26.257 18.9498 23.5735 18.7245 20.1546C18.7023 19.814 18.6597 19.4698 18.5391 19.1478C18.4513 18.9153 18.4841 18.8027 18.744 18.7282C19.2417 18.5862 19.7331 18.4195 20.2157 18.2332C20.4517 18.1418 20.5386 18.1604 20.6149 18.4257C21.07 20.0189 21.0221 21.5926 20.4517 23.1442C19.3792 26.0619 16.5644 28.0144 13.4533 28.0153V28.0161Z" fill="white"/>
</g>
<defs>
<clipPath id="clip0_217_1592">
<rect width="34" height="33.9902" fill="white"/>
</clipPath>
</defs>
</svg>
