<svg width="34" height="37" viewBox="0 0 34 37" fill="none" xmlns="http://www.w3.org/2000/svg">
<path d="M17.2842 0C17.9393 0.284004 18.193 0.781011 18.1409 1.4825C18.1069 1.92933 18.1409 2.37995 18.1324 2.82773C18.1457 2.98464 18.1262 3.14259 18.0752 3.29157C18.0242 3.44055 17.9428 3.5773 17.8361 3.69313C17.7295 3.80897 17.5999 3.90137 17.4556 3.96446C17.3114 4.02756 17.1555 4.05997 16.9981 4.05964C16.8406 4.05931 16.6849 4.02625 16.5409 3.96255C16.3969 3.89886 16.2677 3.80592 16.1615 3.68963C16.0554 3.57335 15.9745 3.43626 15.9241 3.28707C15.8738 3.13788 15.855 2.97985 15.8689 2.823C15.8604 2.37522 15.8945 1.9246 15.8613 1.47871C15.8083 0.777224 16.0611 0.278324 16.7133 0L17.2842 0Z" fill="white"/>
<path d="M16.6092 6.21682C22.2996 6.20546 26.891 10.0916 27.6171 15.3996C28.2401 19.955 26.5218 23.5411 22.7133 26.1037C22.2665 26.4048 22.045 26.7001 22.0933 27.2397C22.1775 28.1798 21.9721 29.0469 21.281 29.7437C21.175 29.8507 21.2413 29.933 21.281 30.0277C21.6729 31.0331 21.6483 32.0754 21.405 33.0883C21.1002 34.3569 19.9708 35.1379 18.6066 35.1332C18.3226 35.1332 18.1333 35.1275 18.0557 35.5024C17.961 35.9757 17.4773 36.2758 16.9916 36.2711C16.506 36.2663 16.0449 35.9577 15.9417 35.4796C15.8726 35.1549 15.724 35.1303 15.4476 35.1322C13.8799 35.1417 12.6615 34.1562 12.5062 32.6529C12.4116 31.7611 12.3273 30.8343 12.7505 29.9747C12.7751 29.9359 12.7843 29.8893 12.7762 29.8441C12.7681 29.7989 12.7434 29.7583 12.7069 29.7305C12.0793 29.0782 11.8549 28.2839 11.9023 27.3969C11.9079 27.3022 11.8928 27.2076 11.9023 27.1129C11.9638 26.6689 11.7688 26.3991 11.3873 26.1662C9.50622 25.0302 8.11649 23.4521 7.18874 21.4622C4.28054 15.2283 8.07578 7.76275 14.8218 6.4374C15.4104 6.31386 16.0082 6.24007 16.6092 6.21682ZM16.9963 28.3341H18.7316C19.773 28.3341 19.8676 28.2745 19.8269 27.2426C19.7749 25.8794 20.34 24.9194 21.5016 24.2075C22.9224 23.3325 24.0524 22.0564 24.7492 20.5402C25.446 19.024 25.6784 17.3355 25.4171 15.6874C24.7099 11.1812 20.6155 8.06853 16.0449 8.55891C10.8827 9.11177 7.41311 14.1812 8.77159 19.1949C9.36989 21.4016 10.6564 23.1027 12.6104 24.2852C13.4491 24.7926 14.002 25.4818 14.1374 26.4625C14.1923 26.8573 14.1629 27.2634 14.1705 27.6648C14.179 28.1287 14.3788 28.336 14.8389 28.3388C15.5555 28.3379 16.2759 28.3341 16.9963 28.3341ZM17.0153 32.8677C17.5568 32.8677 18.0992 32.8734 18.6407 32.8677C19.0393 32.8621 19.2551 32.651 19.2655 32.26C19.2741 31.9069 19.275 31.5528 19.2655 31.1997C19.2551 30.8267 19.0402 30.609 18.6653 30.6061C17.5577 30.5986 16.4504 30.5986 15.3434 30.6061C14.9525 30.6061 14.7451 30.8305 14.7366 31.23C14.73 31.5594 14.7309 31.8927 14.7366 32.2193C14.7442 32.6557 14.9525 32.864 15.3917 32.8687C15.9313 32.8715 16.4728 32.8677 17.0153 32.8677Z" fill="white"/>
<path d="M2.00419 18.1346C1.70977 18.1346 1.41535 18.1422 1.12094 18.1346C0.82326 18.1306 0.539035 18.01 0.329415 17.7986C0.119794 17.5872 0.00153002 17.302 6.79221e-05 17.0043C-0.00155635 16.8565 0.0259658 16.7099 0.0810593 16.5729C0.136153 16.4358 0.217736 16.3109 0.321142 16.2054C0.424547 16.0999 0.547743 16.0158 0.683682 15.9579C0.819621 15.9001 0.965633 15.8696 1.11336 15.8683C1.68989 15.8559 2.26737 15.8569 2.84389 15.8683C3.12617 15.8931 3.38895 16.0226 3.58067 16.2313C3.7724 16.4399 3.87922 16.7127 3.88016 16.9961C3.88111 17.2794 3.77612 17.5529 3.5858 17.7629C3.39548 17.9728 3.13357 18.104 2.85147 18.1308C2.56936 18.1422 2.2863 18.1346 2.00419 18.1346Z" fill="white"/>
<path d="M32.0166 18.1346C31.7222 18.1346 31.4278 18.1441 31.1343 18.1346C30.8368 18.1252 30.5549 17.9994 30.3492 17.7843C30.1435 17.5692 30.0304 17.282 30.0343 16.9844C30.0377 16.6927 30.1543 16.4138 30.3596 16.2066C30.5649 15.9993 30.8427 15.8801 31.1343 15.8739C31.7222 15.8597 32.312 15.8597 32.8999 15.8739C33.1997 15.8739 33.4872 15.993 33.6991 16.205C33.9111 16.417 34.0302 16.7045 34.0302 17.0043C34.0302 17.3041 33.9111 17.5916 33.6991 17.8035C33.4872 18.0155 33.1997 18.1346 32.8999 18.1346C32.6055 18.1441 32.311 18.1346 32.0166 18.1346Z" fill="white"/>
<path d="M29.3476 28.2292C29.3363 28.6949 29.1252 29.0461 28.7039 29.2402C28.2826 29.4343 27.8576 29.4078 27.5139 29.0954C27.0359 28.6599 26.5758 28.2017 26.1422 27.7217C25.7541 27.2929 25.8109 26.6236 26.2189 26.2165C26.6269 25.8094 27.2952 25.7536 27.7241 26.1417C28.2041 26.5753 28.6509 27.0458 29.0987 27.5125C29.1866 27.6088 29.254 27.722 29.2968 27.8452C29.3396 27.9684 29.3569 28.0991 29.3476 28.2292Z" fill="white"/>
<path d="M5.91665 29.3466C5.31172 29.3466 4.95009 29.1279 4.75697 28.6924C4.56385 28.2569 4.60645 27.83 4.93589 27.4769C5.35338 27.0301 5.7879 26.5946 6.23379 26.179C6.44822 25.9886 6.72716 25.887 7.01384 25.895C7.30051 25.9029 7.57337 26.0199 7.77689 26.2219C7.9804 26.424 8.09926 26.696 8.10928 26.9826C8.11931 27.2692 8.01974 27.5489 7.83084 27.7647C7.41525 28.2106 6.97315 28.6337 6.53199 29.0626C6.37037 29.2319 6.15038 29.3335 5.91665 29.3466Z" fill="white"/>
<path d="M4.65963 5.77396C4.66436 5.30062 4.88021 4.95414 5.30148 4.76196C5.72275 4.56979 6.14781 4.59629 6.49335 4.91059C6.96669 5.33849 7.41541 5.79006 7.84426 6.26056C8.02343 6.47673 8.11533 6.75206 8.10194 7.03251C8.08855 7.31297 7.97082 7.57829 7.77187 7.77641C7.57292 7.97453 7.30711 8.09114 7.02661 8.10336C6.7461 8.11558 6.47116 8.02252 6.25573 7.84246C5.7947 7.42118 5.36112 6.96867 4.93038 6.51711C4.8356 6.41919 4.7625 6.30241 4.71585 6.17437C4.6692 6.04633 4.65005 5.9099 4.65963 5.77396Z" fill="white"/>
<path d="M29.347 5.78426C29.3509 5.93812 29.3221 6.09105 29.2623 6.23288C29.2026 6.37472 29.1134 6.50223 29.0006 6.60693C28.6172 6.9856 28.2385 7.37942 27.8485 7.75714C27.3656 8.22291 26.684 8.23048 26.2315 7.78555C25.779 7.34061 25.7724 6.64953 26.2315 6.17051C26.632 5.75397 27.04 5.34311 27.4622 4.94645C27.8153 4.61322 28.2442 4.56778 28.6777 4.75144C29.1113 4.93509 29.3366 5.30051 29.347 5.78426Z" fill="white"/>
<path d="M17.0015 10.7666C18.2173 10.7703 19.4057 11.1281 20.4213 11.7965C21.437 12.4648 22.2359 13.4146 22.7204 14.5297C23.0044 15.1867 22.7734 15.8484 22.177 16.1125C21.5806 16.3767 20.951 16.1125 20.6414 15.4499C19.8557 13.7724 18.3855 12.9241 16.531 13.0775C16.2284 13.1101 15.9253 13.0212 15.6883 12.8304C15.4513 12.6395 15.2998 12.3624 15.2671 12.0598C15.1943 11.4643 15.6051 10.9361 16.2233 10.8197C16.4806 10.7787 16.741 10.761 17.0015 10.7666Z" fill="white"/>
<path d="M20.3166 19.5228C20.3138 19.3751 20.3404 19.2284 20.3948 19.0911C20.4492 18.9539 20.5303 18.8287 20.6335 18.7231C20.7366 18.6174 20.8597 18.5332 20.9956 18.4755C21.1315 18.4178 21.2775 18.3876 21.4252 18.3867C21.7244 18.3846 22.0123 18.5015 22.2254 18.7116C22.4386 18.9217 22.5595 19.2079 22.5617 19.5071C22.5638 19.8064 22.4469 20.0943 22.2368 20.3074C22.0267 20.5206 21.7405 20.6415 21.4413 20.6436C21.2935 20.6449 21.147 20.6168 21.0103 20.5609C20.8735 20.5051 20.7492 20.4227 20.6445 20.3184C20.5399 20.2141 20.457 20.0901 20.4007 19.9535C20.3444 19.8169 20.3158 19.6705 20.3166 19.5228Z" fill="white"/>
</svg>
