<svg width="36" height="36" viewBox="0 0 36 36" fill="none" xmlns="http://www.w3.org/2000/svg">
<path d="M11.9462 15.0339H18.2836C18.712 15.0339 19.0598 14.687 19.0598 14.2578C19.0598 13.8286 18.712 13.4816 18.2836 13.4816H11.9462C11.5179 13.4816 11.1701 13.8286 11.1701 14.2578C11.1701 14.687 11.5179 15.0339 11.9462 15.0339Z" fill="white" stroke="white" stroke-width="0.4"/>
<path d="M21.164 17.5148H9.06538C8.63704 17.5148 8.28926 17.8618 8.28926 18.291C8.28926 18.7202 8.63704 19.0671 9.06538 19.0671H21.164C21.5924 19.0671 21.9402 18.7202 21.9402 18.291C21.9402 17.8618 21.5924 17.5148 21.164 17.5148Z" fill="white" stroke="white" stroke-width="0.4"/>
<path d="M23.164 21.5461H7.06538C6.63704 21.5461 6.28926 21.893 6.28926 22.3222C6.28926 22.7514 6.63704 23.0983 7.06538 23.0983H23.164C23.5924 23.0983 23.9402 22.7514 23.9402 22.3222C23.9402 21.893 23.5924 21.5461 23.164 21.5461Z" fill="white" stroke="white" stroke-width="0.4"/>
<path d="M9.5048 35.1258L9.50436 35.1256C9.10023 34.9583 8.86577 34.5528 8.86577 34.0962V30.5475C4.41978 30.1428 0.8 26.3102 0.8 21.8103V15.2741C0.8 11.1284 3.70993 7.65295 7.5938 6.77595C8.7649 3.23543 12.0864 0.8 15.8502 0.8H27.0548C31.8595 0.8 35.7676 4.70811 35.7676 9.51285V16.0484C35.7676 20.0383 32.8844 23.6031 28.9909 24.5575C27.8431 28.0514 24.5704 30.5825 20.7174 30.5825H19.886C16.6753 30.5825 13.6957 31.7967 11.4933 33.9991L10.6172 34.8751L9.5048 35.1258ZM9.5048 35.1258C9.62207 35.174 9.7458 35.199 9.87062 35.199M9.5048 35.1258L9.87062 35.199M10.418 32.8783V29.8058V29.2296V27.4125C10.418 26.9833 10.0702 26.6364 9.6419 26.6364C9.21355 26.6364 8.86577 26.9833 8.86577 27.4125V28.9798C5.2627 28.5812 2.35225 25.4594 2.35225 21.8097V15.2741C2.35225 11.8366 4.7886 8.95788 8.0251 8.2708L8.32043 8.22139L8.32057 8.22137C8.52794 8.18653 8.72488 8.16128 8.9154 8.14388C9.07199 8.13099 9.22928 8.12262 9.38789 8.11983L9.38437 7.91986M10.418 32.8783L28.078 21.8103V15.2741C28.078 11.2159 24.7762 7.91352 20.7174 7.9141H9.51285C9.49092 7.9141 9.46802 7.91554 9.44509 7.917C9.42465 7.91829 9.40419 7.91959 9.38437 7.91986M10.418 32.8783C12.9132 30.3957 16.2753 29.0296 19.886 29.0296H20.7174C23.8975 29.0296 26.5995 26.9264 27.5301 24.0252L27.617 23.7041L27.6171 23.7038C27.6919 23.4296 27.7475 23.1544 27.7904 22.8788L10.418 32.8783ZM9.38437 7.91986L9.38711 8.11984C9.41213 8.1195 9.43731 8.1179 9.45685 8.11665L9.46143 8.11636C9.48374 8.11495 9.49932 8.1141 9.51285 8.1141H20.7174C24.6657 8.11353 27.878 11.3263 27.878 15.2741V21.8103C27.878 22.01 27.8642 22.2082 27.8476 22.411L9.38437 7.91986ZM9.87062 35.199C10.1443 35.199 10.41 35.0829 10.617 34.8754L9.87062 35.199ZM34.2153 16.0484C34.2153 19.0667 32.198 21.8074 29.3627 22.8342L29.1928 22.5523L29.3919 22.5708C29.3919 22.5706 29.3919 22.5704 29.392 22.5701C29.4154 22.3176 29.4302 22.0631 29.4302 21.8097V15.2741C29.4302 14.674 29.3689 14.0873 29.2527 13.5205L29.2527 13.5205C28.439 9.5539 24.9216 6.56127 20.7174 6.56127H9.51285C9.49906 6.56127 9.48655 6.56229 9.48167 6.56269L9.4807 6.56277C9.47925 6.56288 9.47826 6.56296 9.47763 6.563C9.42932 6.5632 9.38071 6.56374 9.33176 6.56474C10.4735 4.03684 13.0117 2.35283 15.8502 2.35283H27.0548C31.0031 2.35227 34.2153 5.56505 34.2153 9.51285V16.0484Z" fill="white" stroke="white" stroke-width="0.4"/>
</svg>
