<svg width="34" height="34" viewBox="0 0 34 34" fill="none" xmlns="http://www.w3.org/2000/svg">
<path d="M25.5 11.332C27.8472 11.332 29.75 9.42924 29.75 7.08203C29.75 4.73482 27.8472 2.83203 25.5 2.83203C23.1528 2.83203 21.25 4.73482 21.25 7.08203C21.25 9.42924 23.1528 11.332 25.5 11.332Z" stroke="white" stroke-width="2.5" stroke-linecap="round" stroke-linejoin="round"/>
<path d="M8.5 21.25C10.8472 21.25 12.75 19.3472 12.75 17C12.75 14.6528 10.8472 12.75 8.5 12.75C6.15279 12.75 4.25 14.6528 4.25 17C4.25 19.3472 6.15279 21.25 8.5 21.25Z" stroke="white" stroke-width="2.5" stroke-linecap="round" stroke-linejoin="round"/>
<path d="M25.5 31.168C27.8472 31.168 29.75 29.2652 29.75 26.918C29.75 24.5708 27.8472 22.668 25.5 22.668C23.1528 22.668 21.25 24.5708 21.25 26.918C21.25 29.2652 23.1528 31.168 25.5 31.168Z" stroke="white" stroke-width="2.5" stroke-linecap="round" stroke-linejoin="round"/>
<path d="M12.1689 19.1406L21.8448 24.779" stroke="white" stroke-width="2.5" stroke-linecap="round" stroke-linejoin="round"/>
<path d="M21.8306 9.22241L12.1689 14.8607" stroke="white" stroke-width="2.5" stroke-linecap="round" stroke-linejoin="round"/>
</svg>
