<svg width="34" height="34" viewBox="0 0 34 34" fill="none" xmlns="http://www.w3.org/2000/svg">
<path d="M17 15.582H20.5417H24.0833" stroke="white" stroke-width="2" stroke-linecap="round" stroke-linejoin="round"/>
<path d="M17 9.91797H20.5417H24.0833" stroke="white" stroke-width="2" stroke-linecap="round" stroke-linejoin="round"/>
<path d="M11.333 21.25V5.1C11.333 4.63056 11.7136 4.25 12.183 4.25H28.8997C29.3692 4.25 29.7497 4.63056 29.7497 5.1V24.0833C29.7497 27.2129 27.2126 29.75 24.083 29.75" stroke="white" stroke-width="2" stroke-linecap="round" stroke-linejoin="round"/>
<path d="M7.08333 21.25H11.3333H17.5667C18.0362 21.25 18.4211 21.628 18.4589 22.0959C18.6329 24.2458 19.5234 29.75 24.0833 29.75H11.3333H8.5C6.1528 29.75 4.25 27.8473 4.25 25.5V24.0833C4.25 22.5185 5.51853 21.25 7.08333 21.25Z" stroke="white" stroke-width="2" stroke-linecap="round" stroke-linejoin="round"/>
</svg>
