<svg width="34" height="34" viewBox="0 0 34 34" fill="none" xmlns="http://www.w3.org/2000/svg">
<path d="M19.8337 2.83203H8.50033C7.74888 2.83203 7.02821 3.13054 6.49686 3.6619C5.9655 4.19325 5.66699 4.91392 5.66699 5.66536V28.332C5.66699 29.0835 5.9655 29.8041 6.49686 30.3355C7.02821 30.8669 7.74888 31.1654 8.50033 31.1654H25.5003C26.2518 31.1654 26.9724 30.8669 27.5038 30.3355C28.0351 29.8041 28.3337 29.0835 28.3337 28.332V11.332L19.8337 2.83203Z" stroke="white" stroke-width="2" stroke-linecap="round" stroke-linejoin="round"/>
<path d="M19.833 2.83203V11.332H28.333" stroke="white" stroke-width="2" stroke-linecap="round" stroke-linejoin="round"/>
<path d="M22.6663 18.418H11.333" stroke="white" stroke-width="2" stroke-linecap="round" stroke-linejoin="round"/>
<path d="M22.6663 24.082H11.333" stroke="white" stroke-width="2" stroke-linecap="round" stroke-linejoin="round"/>
<path d="M14.1663 12.75H12.7497H11.333" stroke="white" stroke-width="2" stroke-linecap="round" stroke-linejoin="round"/>
</svg>
