<svg width="22" height="22" viewBox="0 0 22 22" fill="none" xmlns="http://www.w3.org/2000/svg">
<path d="M11.0031 0.772705C6.73328 0.772705 5.48453 0.777112 5.24179 0.79725C4.36556 0.870106 3.82032 1.00811 3.2263 1.30393C2.76852 1.53132 2.40748 1.79489 2.05117 2.16436C1.40226 2.83816 1.00897 3.66711 0.866601 4.65247C0.797387 5.13083 0.777248 5.22839 0.773158 7.67182C0.771589 8.4863 0.773158 9.5582 0.773158 10.996C0.773158 15.2635 0.777874 16.5113 0.79833 16.7536C0.869121 17.6065 1.00283 18.1431 1.286 18.73C1.82716 19.8535 2.8607 20.697 4.07831 21.0117C4.49991 21.1202 4.96555 21.18 5.56334 21.2084C5.81662 21.2194 8.39812 21.2272 10.9812 21.2272C13.5643 21.2272 16.1474 21.2241 16.3943 21.2115C17.0865 21.1789 17.4885 21.125 17.9329 21.0101C19.1583 20.6938 20.173 19.863 20.7252 18.7237C21.0028 18.1509 21.1436 17.5939 21.2073 16.7856C21.2212 16.6093 21.227 13.7994 21.227 10.9933C21.227 8.18669 21.2207 5.38197 21.2069 5.20573C21.1424 4.38434 21.0016 3.83202 20.715 3.24822C20.4798 2.77033 20.2186 2.41345 19.8395 2.04855C19.1629 1.40213 18.3354 1.00874 17.3494 0.866488C16.8716 0.797405 16.7765 0.776949 14.3318 0.772705H11.0031Z" fill="url(#paint0_radial_217_3761)"/>
<path d="M11.0031 0.772705C6.73328 0.772705 5.48453 0.777112 5.24179 0.79725C4.36556 0.870106 3.82032 1.00811 3.2263 1.30393C2.76852 1.53132 2.40748 1.79489 2.05117 2.16436C1.40226 2.83816 1.00897 3.66711 0.866601 4.65247C0.797387 5.13083 0.777248 5.22839 0.773158 7.67182C0.771589 8.4863 0.773158 9.5582 0.773158 10.996C0.773158 15.2635 0.777874 16.5113 0.79833 16.7536C0.869121 17.6065 1.00283 18.1431 1.286 18.73C1.82716 19.8535 2.8607 20.697 4.07831 21.0117C4.49991 21.1202 4.96555 21.18 5.56334 21.2084C5.81662 21.2194 8.39812 21.2272 10.9812 21.2272C13.5643 21.2272 16.1474 21.2241 16.3943 21.2115C17.0865 21.1789 17.4885 21.125 17.9329 21.0101C19.1583 20.6938 20.173 19.863 20.7252 18.7237C21.0028 18.1509 21.1436 17.5939 21.2073 16.7856C21.2212 16.6093 21.227 13.7994 21.227 10.9933C21.227 8.18669 21.2207 5.38197 21.2069 5.20573C21.1424 4.38434 21.0016 3.83202 20.715 3.24822C20.4798 2.77033 20.2186 2.41345 19.8395 2.04855C19.1629 1.40213 18.3354 1.00874 17.3494 0.866488C16.8716 0.797405 16.7765 0.776949 14.3318 0.772705H11.0031Z" fill="url(#paint1_radial_217_3761)"/>
<path d="M11.0031 0.772705C6.73328 0.772705 5.48453 0.777112 5.24179 0.79725C4.36556 0.870106 3.82032 1.00811 3.2263 1.30393C2.76852 1.53132 2.40748 1.79489 2.05117 2.16436C1.40226 2.83816 1.00897 3.66711 0.866601 4.65247C0.797387 5.13083 0.777248 5.22839 0.773158 7.67182C0.771589 8.4863 0.773158 9.5582 0.773158 10.996C0.773158 15.2635 0.777874 16.5113 0.79833 16.7536C0.869121 17.6065 1.00283 18.1431 1.286 18.73C1.82716 19.8535 2.8607 20.697 4.07831 21.0117C4.49991 21.1202 4.96555 21.18 5.56334 21.2084C5.81662 21.2194 8.39812 21.2272 10.9812 21.2272C13.5643 21.2272 16.1474 21.2241 16.3943 21.2115C17.0865 21.1789 17.4885 21.125 17.9329 21.0101C19.1583 20.6938 20.173 19.863 20.7252 18.7237C21.0028 18.1509 21.1436 17.5939 21.2073 16.7856C21.2212 16.6093 21.227 13.7994 21.227 10.9933C21.227 8.18669 21.2207 5.38197 21.2069 5.20573C21.1424 4.38434 21.0016 3.83202 20.715 3.24822C20.4798 2.77033 20.2186 2.41345 19.8395 2.04855C19.1629 1.40213 18.3354 1.00874 17.3494 0.866488C16.8716 0.797405 16.7765 0.776949 14.3318 0.772705H11.0031Z" fill="url(#paint2_radial_217_3761)"/>
<path d="M11.0031 0.772705C6.73328 0.772705 5.48453 0.777112 5.24179 0.79725C4.36556 0.870106 3.82032 1.00811 3.2263 1.30393C2.76852 1.53132 2.40748 1.79489 2.05117 2.16436C1.40226 2.83816 1.00897 3.66711 0.866601 4.65247C0.797387 5.13083 0.777248 5.22839 0.773158 7.67182C0.771589 8.4863 0.773158 9.5582 0.773158 10.996C0.773158 15.2635 0.777874 16.5113 0.79833 16.7536C0.869121 17.6065 1.00283 18.1431 1.286 18.73C1.82716 19.8535 2.8607 20.697 4.07831 21.0117C4.49991 21.1202 4.96555 21.18 5.56334 21.2084C5.81662 21.2194 8.39812 21.2272 10.9812 21.2272C13.5643 21.2272 16.1474 21.2241 16.3943 21.2115C17.0865 21.1789 17.4885 21.125 17.9329 21.0101C19.1583 20.6938 20.173 19.863 20.7252 18.7237C21.0028 18.1509 21.1436 17.5939 21.2073 16.7856C21.2212 16.6093 21.227 13.7994 21.227 10.9933C21.227 8.18669 21.2207 5.38197 21.2069 5.20573C21.1424 4.38434 21.0016 3.83202 20.715 3.24822C20.4798 2.77033 20.2186 2.41345 19.8395 2.04855C19.1629 1.40213 18.3354 1.00874 17.3494 0.866488C16.8716 0.797405 16.7765 0.776949 14.3318 0.772705H11.0031Z" fill="url(#paint3_radial_217_3761)"/>
<path d="M11.0042 3.39917C8.93879 3.39917 8.67958 3.40819 7.86836 3.44508C7.05873 3.48213 6.50609 3.61021 6.02253 3.79815C5.52233 3.99225 5.09803 4.2519 4.67531 4.67446C4.25228 5.09687 3.99243 5.52086 3.79755 6.02052C3.609 6.50389 3.48066 7.05627 3.44423 7.86499C3.40795 8.6756 3.39844 8.93478 3.39844 10.9987C3.39844 13.0626 3.40763 13.3208 3.44438 14.1314C3.48162 14.9404 3.6098 15.4927 3.79771 15.9759C3.99211 16.4757 4.25195 16.8997 4.67483 17.3221C5.0974 17.7448 5.5217 18.0051 6.02158 18.1992C6.50545 18.3871 7.05826 18.5152 7.86773 18.5523C8.67895 18.5892 8.938 18.5982 11.0033 18.5982C13.0689 18.5982 13.3273 18.5892 14.1385 18.5523C14.9481 18.5152 15.5014 18.3871 15.9853 18.1992C16.4853 18.0051 16.909 17.7448 17.3316 17.3221C17.7546 16.8997 18.0144 16.4757 18.2093 15.976C18.3963 15.4927 18.5246 14.9403 18.5626 14.1316C18.5991 13.321 18.6086 13.0626 18.6086 10.9987C18.6086 8.93477 18.5991 8.67576 18.5626 7.86514C18.5246 7.05611 18.3963 6.50389 18.2093 6.02069C18.0144 5.52086 17.7546 5.09687 17.3316 4.67446C16.9085 4.25174 16.4855 3.99209 15.9848 3.79814C15.5 3.61021 14.947 3.48213 14.1374 3.44508C13.3262 3.40819 13.0679 3.39917 11.0018 3.39917H11.0042ZM10.322 4.76867C10.5245 4.76835 10.7504 4.76867 11.0042 4.76867C13.0348 4.76867 13.2755 4.77595 14.0773 4.81236C14.8188 4.84625 15.2213 4.97005 15.4894 5.07407C15.8443 5.21181 16.0973 5.37647 16.3633 5.64245C16.6295 5.90843 16.7943 6.16175 16.9324 6.51639C17.0365 6.78395 17.1606 7.1861 17.1943 7.92705C17.2308 8.72816 17.2387 8.96882 17.2387 10.9969C17.2387 13.025 17.2308 13.2657 17.1943 14.0668C17.1604 14.8078 17.0365 15.2099 16.9324 15.4775C16.7946 15.8321 16.6295 16.0846 16.3633 16.3505C16.0971 16.6165 15.8444 16.7811 15.4894 16.9188C15.2216 17.0233 14.8188 17.1468 14.0773 17.1807C13.2756 17.2171 13.0348 17.225 11.0042 17.225C8.97349 17.225 8.73282 17.2171 7.93111 17.1807C7.18961 17.1465 6.78717 17.0227 6.51893 16.9187C6.16402 16.781 5.91051 16.6163 5.64434 16.3503C5.37815 16.0843 5.21338 15.8316 5.07521 15.4768C4.97112 15.2093 4.84706 14.8071 4.81332 14.0662C4.77687 13.2651 4.76958 13.0244 4.76958 10.995C4.76958 8.96565 4.77687 8.72626 4.81332 7.92515C4.84722 7.1842 4.97112 6.78206 5.07521 6.51418C5.21305 6.15953 5.37815 5.90622 5.64434 5.64024C5.91051 5.37425 6.16402 5.2096 6.51893 5.07154C6.78701 4.96704 7.18961 4.84356 7.93111 4.80951C8.63268 4.77784 8.90457 4.76835 10.322 4.76676L10.322 4.76867ZM15.0638 6.0305C14.56 6.0305 14.1512 6.4385 14.1512 6.94212C14.1512 7.44559 14.56 7.85407 15.0638 7.85407C15.5676 7.85407 15.9764 7.44559 15.9764 6.94212C15.9764 6.43865 15.5676 6.03019 15.0638 6.03019L15.0638 6.0305ZM11.0042 7.09601C8.84737 7.09601 7.09866 8.84342 7.09866 10.9987C7.09866 13.1539 8.84737 14.9005 11.0042 14.9005C13.1611 14.9005 14.9092 13.1539 14.9092 10.9987C14.9092 8.84342 13.1609 7.09601 11.0041 7.09601H11.0042ZM11.0042 8.46551C12.4042 8.46551 13.5393 9.59958 13.5393 10.9987C13.5393 12.3976 12.4042 13.5318 11.0042 13.5318C9.60409 13.5318 8.46917 12.3976 8.46917 10.9987C8.46917 9.59958 9.60409 8.46551 11.0042 8.46551Z" fill="white"/>
<defs>
<radialGradient id="paint0_radial_217_3761" cx="0" cy="0" r="1" gradientUnits="userSpaceOnUse" gradientTransform="translate(20.5665 10.36) rotate(164.25) scale(13.0693 9.4158)">
<stop stop-color="#FF005F"/>
<stop offset="1" stop-color="#FC01D8"/>
</radialGradient>
<radialGradient id="paint1_radial_217_3761" cx="0" cy="0" r="1" gradientUnits="userSpaceOnUse" gradientTransform="translate(6.20554 22.8027) rotate(-90) scale(16.3272 17.3228)">
<stop stop-color="#FFCC00"/>
<stop offset="0.1242" stop-color="#FFCC00"/>
<stop offset="0.5672" stop-color="#FE4A05"/>
<stop offset="0.6942" stop-color="#FF0F3F"/>
<stop offset="1" stop-color="#FE0657" stop-opacity="0"/>
</radialGradient>
<radialGradient id="paint2_radial_217_3761" cx="0" cy="0" r="1" gradientUnits="userSpaceOnUse" gradientTransform="translate(11.5166 20.9388) rotate(-59.8703) scale(6.75144 8.78962)">
<stop stop-color="#FFCC00"/>
<stop offset="1" stop-color="#FFCC00" stop-opacity="0"/>
</radialGradient>
<radialGradient id="paint3_radial_217_3761" cx="0" cy="0" r="1" gradientUnits="userSpaceOnUse" gradientTransform="translate(3.5477 1.60561) rotate(164.274) scale(12.9243 4.40331)">
<stop stop-color="#780CFF"/>
<stop offset="1" stop-color="#820BFF" stop-opacity="0"/>
</radialGradient>
</defs>
</svg>
