<svg width="22" height="22" viewBox="0 0 22 22" fill="none" xmlns="http://www.w3.org/2000/svg">
<path fill-rule="evenodd" clip-rule="evenodd" d="M8.3703 7.76362H12.1687V9.65566C12.7159 8.56748 14.1191 7.58975 16.2269 7.58975C20.2677 7.58975 21.227 9.75589 21.227 13.7302V21.0908H17.1361V14.6353C17.1361 12.372 16.5889 11.0957 15.196 11.0957C13.2641 11.0957 12.4612 12.4712 12.4612 14.6343V21.0908H8.3703V7.76362ZM1.35542 20.9169H5.44632V7.58975H1.35542V20.9169ZM6.03235 3.24418C6.0325 3.58708 5.96449 3.92659 5.83229 4.24297C5.70008 4.55935 5.50631 4.8463 5.26223 5.08714C4.76764 5.57869 4.09818 5.85383 3.40087 5.85214C2.70479 5.85167 2.03687 5.57723 1.54155 5.08816C1.29836 4.8465 1.10524 4.55923 0.973267 4.24281C0.841292 3.92638 0.773053 3.58703 0.772461 3.24418C0.772461 2.5518 1.0486 1.88907 1.54257 1.40021C2.03746 0.910484 2.70566 0.635924 3.40189 0.636231C4.09939 0.636231 4.76826 0.911344 5.26223 1.40021C5.75519 1.88907 6.03235 2.5518 6.03235 3.24418Z" fill="#0A66C2"/>
</svg>
