<svg width="34" height="35" viewBox="0 0 34 35" fill="none" xmlns="http://www.w3.org/2000/svg">
<path d="M28.3337 15.2081C28.3337 24.2232 17.0003 31.9505 17.0003 31.9505C17.0003 31.9505 5.66699 24.2232 5.66699 15.2081C5.66699 12.134 6.86104 9.1858 8.98645 7.01209C11.1119 4.83837 13.9945 3.61719 17.0003 3.61719C20.0061 3.61719 22.8888 4.83837 25.0142 7.01209C27.1396 9.1858 28.3337 12.134 28.3337 15.2081Z" stroke="#227AEB" stroke-width="2.5" stroke-linecap="round" stroke-linejoin="round"/>
<path d="M17 19.2031C19.3472 19.2031 21.25 17.3003 21.25 14.9531C21.25 12.6059 19.3472 10.7031 17 10.7031C14.6528 10.7031 12.75 12.6059 12.75 14.9531C12.75 17.3003 14.6528 19.2031 17 19.2031Z" stroke="#227AEB" stroke-width="2.5" stroke-linecap="round" stroke-linejoin="round"/>
</svg>
