<svg width="28" height="28" viewBox="0 0 28 28" fill="none" xmlns="http://www.w3.org/2000/svg">
<path d="M28 14C28 6.28 21.72 0 14 0C6.28 0 0 6.28 0 14C0 21.72 6.28 28 14 28C21.72 28 28 21.72 28 14ZM1.96 14C1.96 7.36 7.36 1.96 14 1.96C20.64 1.96 26.04 7.36 26.04 14C26.04 20.64 20.64 26.04 14 26.04C7.36 26.04 1.96 20.64 1.96 14Z" fill="#FA4A5F"/>
<path d="M14.2159 17.7598L18.3359 13.6398C18.7188 13.257 18.7188 12.6341 18.3359 12.2513C17.953 11.8684 17.3302 11.8684 16.9473 12.2513L13.5188 15.6798L10.0902 12.2513C9.70733 11.8684 9.08448 11.8684 8.70162 12.2513C8.51305 12.4398 8.41591 12.6913 8.41591 12.9427C8.41591 13.1941 8.51305 13.4455 8.70162 13.6341L12.8216 17.7541C13.2159 18.1427 13.833 18.1427 14.2159 17.7598Z" fill="#FA4A5F"/>
</svg>
