<svg width="34" height="30" viewBox="0 0 34 30" fill="none" xmlns="http://www.w3.org/2000/svg">
<path d="M32.5116 0.424713H32.4184H1.58228C1.10287 0.424713 0.660054 0.680333 0.420503 1.09554L0.420483 1.09558C0.180932 1.51053 0.180934 2.02206 0.420481 2.43698L0.420505 2.43702C0.660039 2.85222 1.10288 3.10784 1.58228 3.10784H3.17452H3.32452V3.25784V18.9198C3.32452 19.8689 3.70147 20.7792 4.37268 21.4502L4.37273 21.4502C5.04365 22.1215 5.95399 22.4984 6.90296 22.4984H12.3506H12.7127L12.4567 22.7545L8.35514 26.8563C8.01601 27.1955 7.88374 27.6899 8.00767 28.1531L32.5116 0.424713ZM32.5116 0.424713C32.9544 0.455467 33.3561 0.704132 33.5803 1.09235C33.5803 1.09236 33.5803 1.09237 33.5803 1.09237L33.7102 1.01735C33.9766 1.47868 33.9766 2.04738 33.7102 2.50875C33.4436 2.97041 32.9512 3.25461 32.4185 3.25461H30.9763H30.8263V3.40461V18.9158C30.8263 19.9049 30.4335 20.8531 29.7342 21.5526C29.0348 22.252 28.0866 22.6447 27.0975 22.6447H21.8696L21.7636 22.5387L21.6575 22.6447V22.7947H21.8075L25.759 26.7466C26.1361 27.1236 26.2831 27.673 26.1453 28.1882L26.0004 28.1493C25.8762 28.6124 25.5144 28.9743 25.0513 29.0986C24.5879 29.2228 24.0939 29.0903 23.7547 28.7511L17.539 22.535L17.4951 22.4911H17.433H16.5678H16.5056L16.4617 22.5351L10.2534 28.7548C10.2534 28.7548 10.2534 28.7548 10.2533 28.7549C9.91417 29.094 9.42013 29.2265 8.95681 29.1023C8.49373 28.978 8.13191 28.6165 8.00768 28.1531L32.5116 0.424713ZM6.15747 3.10842L6.00747 3.10843V3.25842V18.9196C6.00747 19.4142 6.40832 19.8151 6.90299 19.8151H27.0974C27.3349 19.8151 27.5628 19.7209 27.7309 19.5528C27.899 19.3847 27.9932 19.1571 27.9932 18.9196V18.9193L27.9931 3.25812V3.10812L27.8431 3.10812L6.15747 3.10842Z" fill="#227AEB" stroke="white" stroke-width="0.3"/>
<path d="M12.3438 16.0984C12.092 16.3483 11.7507 16.4889 11.3946 16.489H11.3945C11.0383 16.4889 10.6967 16.3483 10.4453 16.0985C10.1935 15.8483 10.0523 15.5096 10.0523 15.1567V13.826C10.0523 13.3507 10.3079 12.9108 10.7231 12.6726L10.7231 12.6726C11.1386 12.4341 11.6504 12.4341 12.0659 12.6726L12.066 12.6726C12.4811 12.9107 12.7364 13.3506 12.7364 13.826V15.1567C12.7364 15.5097 12.5953 15.8483 12.3438 16.0984Z" fill="#227AEB" stroke="white" stroke-width="0.3"/>
<path d="M16.3299 6.29856C15.9145 6.53865 15.6588 6.98199 15.6588 7.4616V15.1462C15.6588 15.5023 15.8002 15.8437 16.0518 16.0958C16.3037 16.3475 16.6448 16.4889 17.0006 16.489L16.3299 6.29856ZM16.3299 6.29856C16.745 6.05881 17.2566 6.05881 17.6717 6.29857L16.3299 6.29856ZM17.9495 16.0958C17.698 16.3475 17.3568 16.4889 17.0007 16.489L17.6717 6.29858C18.0871 6.53861 18.3428 6.98198 18.3428 7.4616V15.1462C18.3428 15.5023 18.2014 15.8438 17.9495 16.0958Z" fill="#227AEB" stroke="white" stroke-width="0.3"/>
<path d="M23.5564 16.0963C23.3049 16.3471 22.9634 16.4882 22.6075 16.4883L23.2787 10.0501C23.6937 10.2892 23.9493 10.731 23.9493 11.2092V15.1499C23.9493 15.5047 23.808 15.845 23.5564 16.0963ZM21.2652 11.2092C21.2652 10.7311 21.521 10.2892 21.9362 10.0501L22.6074 16.4883C22.2513 16.4882 21.9098 16.3471 21.6584 16.0962C21.4065 15.8449 21.2652 15.5047 21.2652 15.1499V11.2092ZM21.9362 10.05C22.3516 9.81093 22.8632 9.81092 23.2786 10.05L21.9362 10.05Z" fill="#227AEB" stroke="white" stroke-width="0.3"/>
</svg>
