<svg width="34" height="29" viewBox="0 0 34 29" fill="none" xmlns="http://www.w3.org/2000/svg">
<path d="M17.2332 7.52302C17.2332 11.0883 14.3325 13.9891 10.7672 13.9891C7.20194 13.9891 4.30117 11.0883 4.30117 7.52302C4.30117 3.9578 7.20185 1.05703 10.7672 1.05703C14.3325 1.05703 17.2332 3.95771 17.2332 7.52302ZM14.6421 7.52302C14.6421 5.3864 12.9039 3.64822 10.7672 3.64822C8.63054 3.64822 6.89236 5.38631 6.89236 7.52302C6.89236 9.65973 8.63045 11.3979 10.7672 11.3979C12.9039 11.3979 14.6421 9.65973 14.6421 7.52302Z" fill="white" stroke="#227AEB" stroke-width="0.2"/>
<path d="M30.5635 8.72874C30.5635 11.7074 28.1401 14.1309 25.1614 14.1309C22.1827 14.1309 19.7592 11.7074 19.7592 8.72874C19.7592 5.75004 22.1827 3.32656 25.1614 3.32656C28.1401 3.32656 30.5635 5.75004 30.5635 8.72874ZM27.9723 8.72874C27.9723 7.17864 26.7114 5.91775 25.1614 5.91775C23.6113 5.91775 22.3504 7.17864 22.3504 8.72874C22.3504 10.2788 23.6114 11.5397 25.1614 11.5397C26.7114 11.5397 27.9723 10.2787 27.9723 8.72874Z" fill="white" stroke="#227AEB" stroke-width="0.2"/>
<path d="M33.8999 24.3934V25.689H21.4999H21.3916L21.4002 25.7969C21.4224 26.0772 21.434 26.3603 21.434 26.646V27.9416H0.1V26.646C0.1 20.7643 4.88528 15.979 10.7671 15.979C13.6399 15.979 16.2508 17.1209 18.1708 18.9746L18.2499 19.051L18.3184 18.9649C19.9566 16.9092 22.474 15.6547 25.1612 15.6547C29.966 15.6547 33.8777 19.5527 33.8999 24.3523V24.3934ZM2.81488 25.233L2.79407 25.3504H2.91335H18.6207H18.7399L18.7191 25.233C18.0489 21.4512 14.7384 18.5702 10.767 18.5702C6.79561 18.5702 3.48497 21.4512 2.81488 25.233ZM20.8033 23.0318L20.8271 23.0978H20.8973H31.0463H31.1728L31.1436 22.9748C30.5015 20.2666 28.0633 18.2459 25.1612 18.2459C23.0404 18.2459 21.0708 19.3561 19.9554 21.1268L19.9228 21.1785L19.9539 21.2311C20.2904 21.7998 20.5758 22.4021 20.8033 23.0318Z" fill="white" stroke="#227AEB" stroke-width="0.2"/>
</svg>
