<svg width="34" height="34" viewBox="0 0 34 34" fill="none" xmlns="http://www.w3.org/2000/svg">
<path d="M21.3432 7.35165C22.6525 7.60661 23.8558 8.24572 24.7991 9.18718C25.7423 10.1286 26.3827 11.3296 26.6381 12.6364M21.3432 2C24.0634 2.30161 26.6 3.51743 28.5365 5.44781C30.4731 7.3782 31.6944 9.90842 32 12.623M30.6595 23.2996V27.3133C30.661 27.6859 30.5846 28.0547 30.435 28.3961C30.2854 28.7376 30.0661 29.044 29.791 29.2959C29.5159 29.5478 29.1911 29.7396 28.8375 29.859C28.4838 29.9783 28.1091 30.0227 27.7373 29.9891C23.6124 29.5418 19.6502 28.135 16.169 25.8817C12.9302 23.8276 10.1842 21.0869 8.12614 17.8543C5.86071 14.3639 4.45088 10.39 4.01088 6.25456C3.97738 5.88459 4.02144 5.5117 4.14024 5.15965C4.25904 4.8076 4.44998 4.48409 4.70091 4.20973C4.95184 3.93536 5.25726 3.71615 5.59772 3.56606C5.93818 3.41596 6.30623 3.33826 6.67843 3.33791H10.6999C11.3504 3.33152 11.9811 3.56145 12.4743 3.98484C12.9676 4.40823 13.2898 4.99618 13.3808 5.63912C13.5505 6.92361 13.8653 8.18481 14.3191 9.39866C14.4995 9.87753 14.5385 10.398 14.4316 10.8983C14.3247 11.3986 14.0763 11.8579 13.7159 12.2217L12.0135 13.9208C13.9218 17.2703 16.7004 20.0437 20.0564 21.9483L21.7588 20.2491C22.1232 19.8894 22.5834 19.6415 23.0847 19.5348C23.586 19.4281 24.1074 19.4671 24.5872 19.6471C25.8033 20.1 27.067 20.4142 28.3539 20.5836C29.0051 20.6753 29.5997 21.0027 30.0249 21.5034C30.45 22.0042 30.6758 22.6434 30.6595 23.2996Z" stroke="#227AEB" stroke-width="2.2" stroke-linecap="round" stroke-linejoin="round"/>
</svg>
