<svg width="34" height="33" viewBox="0 0 34 33" fill="none" xmlns="http://www.w3.org/2000/svg">
<g clip-path="url(#clip0_217_1567)">
<path d="M33.0125 18.6826V19.9328C32.9297 19.957 32.9531 20.0306 32.9423 20.0866C32.4994 22.2276 30.9074 23.6507 28.7246 23.8321C28.463 23.8538 28.4388 23.9549 28.4396 24.1705C28.4455 26.64 28.4438 29.1103 28.4438 31.5797C28.4438 32.4062 28.2508 32.7003 27.5112 33.0003H17.0067C16.3189 32.6636 16.0624 32.28 16.1317 31.6967C16.1718 31.3566 16.4042 31.1226 16.583 30.8568C17.1153 30.0671 17.1605 29.2364 16.6883 28.4175C16.237 27.6336 15.525 27.24 14.6158 27.2868C13.6539 27.3361 12.9687 27.8258 12.6077 28.7183C12.2868 29.5122 12.4096 30.266 12.9244 30.9521C13.1057 31.1936 13.2896 31.4318 13.3147 31.751C13.3606 32.3376 13.0589 32.7421 12.3787 33.002H1.87335C1.20481 32.7346 0.98335 32.2349 0.988364 31.5287C1.01009 28.3824 0.997557 25.2352 0.998392 22.0889C0.998392 21.9744 0.994214 21.859 1.00341 21.7454C1.07193 20.8596 2.05051 20.3874 2.78675 20.8855C2.91628 20.9732 3.03244 21.0802 3.16364 21.1638C3.95169 21.6693 4.76982 21.717 5.5821 21.2515C6.34758 20.8128 6.73952 20.1208 6.71779 19.2392C6.69439 18.2773 6.21805 17.5728 5.33725 17.1901C4.52914 16.8391 3.75196 16.9561 3.04497 17.4893C2.81182 17.6648 2.58284 17.8428 2.27531 17.8712C1.53908 17.9389 1.00006 17.4249 1.00006 16.636C0.997557 13.3953 0.999228 10.1553 0.999228 6.91457C0.999228 5.99783 1.43963 5.55743 2.35721 5.55743C4.79572 5.55743 7.23341 5.55743 9.67192 5.55743C9.97778 5.55743 10.1458 5.40171 10.1758 5.09028C10.4015 2.75456 12.423 0.954499 14.7804 0.988762C17.1613 1.0247 19.1268 2.88241 19.2639 5.24405C19.2789 5.50227 19.3541 5.56411 19.6082 5.56328C22.0985 5.55325 24.5888 5.55659 27.0791 5.55743C27.9984 5.55743 28.4421 5.99867 28.4421 6.9129C28.4421 9.40323 28.4463 11.8936 28.4371 14.383C28.4363 14.6271 28.4814 14.7123 28.748 14.7357C30.6709 14.9045 31.9838 15.909 32.7233 17.6857C32.8579 18.0091 32.8687 18.3642 33.0133 18.6818L33.0125 18.6826ZM7.49414 7.85388C6.19131 7.85388 4.88849 7.86056 3.58649 7.84803C3.33997 7.84552 3.28064 7.91321 3.28231 8.15556C3.29234 10.208 3.28816 12.2613 3.28816 14.3137C3.28816 14.8326 3.28816 14.8301 3.79207 14.7549C3.92578 14.7349 4.062 14.7382 4.19738 14.7282C7.13897 14.5143 9.53487 17.3338 8.90477 20.227C8.38664 22.6045 6.02501 24.2742 3.54972 23.7535C3.35167 23.7118 3.28231 23.7477 3.28314 23.9725C3.2915 26.1402 3.29066 28.3072 3.28314 30.4749C3.28314 30.6713 3.33913 30.7173 3.52883 30.7164C5.69659 30.7097 7.86351 30.7089 10.0313 30.7181C10.2644 30.7189 10.287 30.6354 10.2452 30.4473C10.1466 30.0069 10.1282 29.5632 10.1725 29.1128C10.4274 26.4896 12.794 24.6845 15.4841 25.0656C17.9427 25.414 19.6725 27.8902 19.1987 30.393C19.151 30.6462 19.1895 30.7214 19.4711 30.7198C21.5344 30.7064 23.5977 30.7122 25.661 30.7122C25.9841 30.7122 26.1457 30.549 26.1457 30.2225C26.1457 27.7005 26.1449 25.1792 26.1457 22.6571C26.1457 21.9877 26.4783 21.5173 27.0357 21.3886C27.3432 21.3175 27.6315 21.4153 27.924 21.4922C28.8266 21.7312 29.8344 21.3284 30.3458 20.5337C30.869 19.7214 30.838 18.6208 30.2506 17.9046C29.5996 17.1107 28.7756 16.8283 27.7728 17.1141C27.1661 17.287 26.7048 17.1625 26.3914 16.7564C26.1891 16.4948 26.1449 16.1915 26.1449 15.8722C26.1465 13.2983 26.1415 10.7244 26.1515 8.15055C26.1524 7.90151 26.0839 7.84719 25.844 7.84803C23.2801 7.85722 20.7171 7.85388 18.1532 7.85304C17.1061 7.85304 16.6097 7.20038 16.8947 6.19171C16.9724 5.91761 17.0217 5.64517 16.9891 5.36021C16.8312 3.98969 15.6211 3.07044 14.2932 3.31363C12.962 3.55681 12.1773 4.87217 12.5533 6.22848C12.8199 7.19118 12.316 7.85137 11.3082 7.85304C10.0371 7.85555 8.76521 7.85304 7.49414 7.85304V7.85388Z" fill="white"/>
</g>
<defs>
<clipPath id="clip0_217_1567">
<rect width="32.0241" height="32.0124" fill="white" transform="translate(0.988281 0.988281)"/>
</clipPath>
</defs>
</svg>
