<svg width="32" height="32" viewBox="0 0 32 32" fill="none" xmlns="http://www.w3.org/2000/svg">
<path d="M12.8043 11.687H12.8042L12.8045 11.6919C12.8363 12.3276 12.3284 12.8391 11.687 12.8391H1.21739C0.61175 12.8391 0.1 12.3274 0.1 11.7217C0.1 5.30721 5.3076 0.1 11.687 0.1C12.2926 0.1 12.8043 0.61175 12.8043 1.21739V11.687ZM2.43993 10.457L2.42561 10.5696H2.53913H10.5043H10.6043V10.4696V2.53913V2.42573L10.4918 2.43992C6.30761 2.96734 2.96744 6.30717 2.43993 10.457ZM16.313 16.413H16.413V16.313V3.54783C16.413 2.83784 16.9944 2.25652 17.7043 2.25652C25.4017 2.25652 31.9 9.02509 31.9 17.0783C31.9 25.2317 25.2317 31.9 17.0783 31.9C8.88594 31.9 2.25652 25.5408 2.25652 17.7043C2.25652 16.9944 2.83784 16.413 3.54783 16.413H16.313ZM5.04348 18.9957H4.92986L4.94429 19.1084C5.68153 24.8658 10.84 29.3174 17.0783 29.3174C23.8118 29.3174 29.3174 23.8118 29.3174 17.0783C29.3174 10.9441 24.7613 5.68163 19.1086 4.94432L18.9957 4.92959V5.04348V17.7043C18.9957 18.4143 18.4143 18.9957 17.7043 18.9957H5.04348Z" fill="white" stroke="#227AEB" stroke-width="0.2"/>
</svg>
