<svg width="34" height="34" viewBox="0 0 34 34" fill="none" xmlns="http://www.w3.org/2000/svg">
<path d="M34 0H0V34H34V0Z" fill="white" fill-opacity="0.01"/>
<path d="M14.8747 24.7866C14.8747 25.3631 14.8747 25.8336 14.8747 26.1982C14.8747 26.8256 14.8747 27.7667 14.8747 29.0214C14.8747 29.4238 14.5752 29.75 14.2057 29.75H3.50199C3.13252 29.75 2.83301 29.4238 2.83301 29.0214V4.97857C2.83301 4.57619 3.13252 4.25 3.50199 4.25H14.2057C14.5752 4.25 14.8747 4.57619 14.8747 4.97857C14.8747 6.23333 14.8747 7.17443 14.8747 7.8018C14.8747 8.16638 14.8747 8.63692 14.8747 9.21336" stroke="white" stroke-width="2" stroke-linecap="round"/>
<path d="M19.125 9.21336C19.125 8.63692 19.125 8.16638 19.125 7.8018C19.125 7.17443 19.125 6.23333 19.125 4.97857C19.125 4.57619 19.4245 4.25 19.794 4.25H30.4977C30.8672 4.25 31.1667 4.57619 31.1667 4.97857V29.0214C31.1667 29.4238 30.8672 29.75 30.4977 29.75H19.794C19.4245 29.75 19.125 29.4238 19.125 29.0214C19.125 27.7667 19.125 26.8256 19.125 26.1982C19.125 25.8336 19.125 25.3631 19.125 24.7866" stroke="white" stroke-width="2" stroke-linecap="round"/>
<path d="M8.85417 26.9154C9.63659 26.9154 10.2708 26.2811 10.2708 25.4987C10.2708 24.7163 9.63659 24.082 8.85417 24.082C8.07174 24.082 7.4375 24.7163 7.4375 25.4987C7.4375 26.2811 8.07174 26.9154 8.85417 26.9154Z" fill="white"/>
<path d="M25.1462 26.9154C25.9286 26.9154 26.5628 26.2811 26.5628 25.4987C26.5628 24.7163 25.9286 24.082 25.1462 24.082C24.3637 24.082 23.7295 24.7163 23.7295 25.4987C23.7295 26.2811 24.3637 26.9154 25.1462 26.9154Z" fill="white"/>
<path d="M11.333 16.6445H22.6663" stroke="white" stroke-width="2" stroke-linecap="round"/>
<path d="M19.2832 20.0273L20.4102 18.9004L22.6641 16.6465L20.4102 14.3926L19.2832 13.2656" stroke="white" stroke-width="2" stroke-linecap="round" stroke-linejoin="round"/>
</svg>
