<svg width="24" height="24" viewBox="0 0 24 24" fill="none" xmlns="http://www.w3.org/2000/svg">
<path d="M12.0002 23.0747C18.0984 23.0747 23.0747 18.0984 23.0747 12.0002C23.075 5.90209 18.0986 0.925781 12.0002 0.925781C5.90209 0.925781 0.925781 5.90209 0.925781 12.0002C0.925781 18.0984 5.90209 23.0747 12.0002 23.0747ZM12.0002 2.36407C17.3217 2.36407 21.6364 6.67888 21.6364 12.0002C21.6367 17.3217 17.3219 21.6364 12.0002 21.6364C6.679 21.6364 2.36407 17.3216 2.36407 12.0002C2.36407 6.679 6.67888 2.36407 12.0002 2.36407Z" fill="#FCFCFC" stroke="#FCFCFC" stroke-width="0.4"/>
<path d="M10.2173 15.3655C10.3611 15.5092 10.5338 15.5669 10.735 15.5669C10.9075 15.5669 11.0802 15.5095 11.224 15.3655L17.1783 9.69874C17.4658 9.41118 17.4658 8.97959 17.207 8.69206C16.9194 8.4045 16.4878 8.4045 16.2003 8.66335L10.735 13.8698L7.82977 10.9358C7.54221 10.6483 7.08196 10.6483 6.82309 10.9358C6.53553 11.2234 6.53553 11.6836 6.82309 11.9425L10.2173 15.3655Z" fill="#FCFCFC" stroke="#FCFCFC" stroke-width="0.4"/>
</svg>
