<svg width="24" height="34" viewBox="0 0 24 34" fill="none" xmlns="http://www.w3.org/2000/svg">
<g clip-path="url(#clip0_217_1556)">
<path d="M9.1729 0.000831764C9.75846 0.207109 10.0013 0.621327 9.97389 1.23766C9.94894 1.79994 9.97389 2.3647 9.96724 2.92781C9.96058 3.54248 9.53971 3.98248 8.97161 3.98165C8.40269 3.98165 7.98431 3.54082 7.97766 2.92531C7.97183 2.36221 7.97599 1.79827 7.97683 1.23517C7.97683 0.518189 8.13736 0.271155 8.77449 0H9.1729V0.000831764Z" fill="white"/>
<path d="M5.98499 17.7681C5.98499 17.5709 5.98499 17.4636 5.98499 17.3572C5.98499 14.6132 5.98499 11.87 5.98499 9.12605C5.98499 8.09217 6.34099 7.22048 7.1819 6.59083C8.08686 5.91378 9.09329 5.78735 10.1238 6.22153C11.127 6.64407 11.7616 7.42093 11.9022 8.51803C12.0444 9.62927 11.9396 10.7497 11.9546 11.8659C11.9579 12.1071 11.9745 12.1861 12.254 12.1154C13.1515 11.8892 13.9849 12.0647 14.7285 12.6211C14.8807 12.7351 14.9797 12.7609 15.1527 12.6336C16.7996 11.425 19.0054 12.0788 19.7307 13.9852C19.7981 14.1615 19.8513 14.2098 20.0543 14.1532C22.043 13.5984 23.8812 14.9559 23.9028 17.0303C23.9303 19.6745 23.9095 22.3187 23.9087 24.9628C23.9087 25.7913 23.5269 26.4692 23.0544 27.1088C22.785 27.4731 22.508 27.8316 22.2368 28.1951C22.0189 28.487 21.9133 28.8089 21.9133 29.1807C21.9133 29.8877 21.9549 30.5964 21.8875 31.3034C21.7461 32.7947 20.5117 33.9733 18.9364 33.9841C16.2814 34.0016 13.6256 34.0091 10.9706 33.9825C9.25715 33.965 8.00535 32.6708 7.97873 30.9532C7.96542 30.1015 7.96459 29.2489 7.98289 28.398C7.98871 28.1294 7.89971 27.9514 7.67846 27.8266C7.30417 27.6153 6.93237 27.3982 6.55059 27.2003C5.86522 26.8443 5.27716 26.3793 4.78226 25.7796C3.44479 24.1585 2.0782 22.5632 0.74405 20.9396C-0.0644239 19.9548 -0.230777 18.8419 0.327337 17.6882C0.860497 16.5861 1.7929 16.0289 3.0131 16.0122C3.85817 16.0006 4.57765 16.3466 5.17402 16.943C5.42438 17.1933 5.66975 17.4478 5.98499 17.7689V17.7681ZM7.97707 14.5059C7.97707 15.2029 7.97707 15.8999 7.97707 16.597C7.97707 17.7473 7.98206 18.8976 7.9754 20.0488C7.97124 20.7674 7.47135 21.2249 6.81676 21.1276C6.53812 21.0868 6.33683 20.918 6.14719 20.7283C5.35784 19.9373 4.56684 19.1488 3.77749 18.3578C3.50301 18.0825 3.18444 17.9303 2.79102 18.0176C2.03162 18.1856 1.76629 19.059 2.28947 19.687C3.33583 20.9454 4.42294 22.1714 5.43021 23.4607C6.26114 24.5237 7.18523 25.4378 8.45117 25.9576C8.53185 25.9909 8.60172 26.0491 8.67658 26.0957C9.56657 26.6488 10.0207 27.424 9.97579 28.4962C9.94169 29.3021 9.96581 30.1106 9.96997 30.9183C9.97413 31.5862 10.3767 31.9962 11.0429 31.9971C13.6422 32.0004 16.2423 32.0004 18.8416 31.9971C19.5253 31.9962 19.9212 31.5878 19.9254 30.895C19.9287 30.2645 19.9278 29.634 19.9254 29.0035C19.9229 28.4005 20.1017 27.8532 20.4153 27.3425C20.7629 26.7761 21.1988 26.2737 21.5839 25.7347C21.7802 25.4594 21.9191 25.1683 21.9191 24.8198C21.9174 22.2313 21.9199 19.6429 21.9166 17.0536C21.9158 16.4522 21.5057 16.0172 20.9501 16.0014C20.397 15.9856 19.9778 16.394 19.927 16.9979C19.8763 17.5992 19.4521 18.0076 18.8981 17.9885C18.3425 17.9694 17.9424 17.5352 17.9366 16.9313C17.9308 16.3233 17.9383 15.7144 17.9341 15.1064C17.9299 14.4601 17.524 14.0135 16.9443 14.0102C16.3629 14.0068 15.9487 14.4535 15.9445 15.0956C15.9404 15.7036 15.9479 16.3125 15.9429 16.9205C15.9379 17.541 15.527 17.9827 14.9589 17.9893C14.3775 17.996 13.9574 17.5493 13.9525 16.9105C13.9483 16.28 13.9591 15.6496 13.9483 15.0191C13.9383 14.4344 13.495 14.001 12.9394 14.011C12.3954 14.0201 11.9754 14.4468 11.962 15.0183C11.9529 15.4167 11.9595 15.8151 11.9595 16.2127C11.9595 16.4672 11.9645 16.7217 11.9579 16.9762C11.9413 17.5635 11.5096 17.996 10.9531 17.9902C10.4091 17.9843 9.97663 17.5585 9.97164 16.9887C9.96165 15.8384 9.96831 14.6881 9.96831 13.5369C9.96831 12.0439 9.96581 10.55 9.96997 9.05701C9.97164 8.58956 9.78283 8.23773 9.3553 8.04892C8.68573 7.75364 7.98123 8.25602 7.97873 9.0304C7.97291 10.8553 7.97707 12.681 7.97707 14.5059Z" fill="white"/>
<path d="M1.89303 3.97487C2.17171 3.86062 2.43083 3.8549 2.6896 3.95381C3.29657 4.18773 3.90721 4.41551 4.50821 4.66478C5.05888 4.89256 5.29904 5.44752 5.09541 5.96215C4.89519 6.46801 4.35758 6.71872 3.8131 6.52366C3.17932 6.29696 2.55332 6.04868 1.93235 5.78911C1.52846 5.62041 1.32017 5.2931 1.32612 4.85168C1.33187 4.4367 1.55209 4.15009 1.89226 3.97521L1.89303 3.97487Z" fill="white"/>
<path d="M15.5894 3.97487C15.3107 3.86062 15.0516 3.8549 14.7928 3.95381C14.1858 4.18773 13.5752 4.41551 12.9742 4.66478C12.4235 4.89256 12.1834 5.44752 12.387 5.96215C12.5872 6.46801 13.1248 6.71872 13.6693 6.52366C14.3031 6.29696 14.9291 6.04868 15.5501 5.78911C15.954 5.62041 16.1623 5.2931 16.1563 4.85168C16.1505 4.4367 15.9303 4.15009 15.5902 3.97521L15.5894 3.97487Z" fill="white"/>
</g>
<defs>
<clipPath id="clip0_217_1556">
<rect width="23.9165" height="34" fill="white"/>
</clipPath>
</defs>
</svg>
