<svg width="34" height="35" viewBox="0 0 34 35" fill="none" xmlns="http://www.w3.org/2000/svg">
<path d="M24.5443 11.2151C24.5443 15.4078 21.1271 18.6995 16.9964 18.6995C12.8662 18.6995 9.44844 15.3447 9.44844 11.1515C9.44844 6.95888 12.8657 3.66719 16.9964 3.66719C21.1265 3.66719 24.5443 7.02194 24.5443 11.2151ZM22.2909 11.1573C22.2909 8.29601 19.9148 5.92058 16.9964 5.92058C14.078 5.92058 11.7018 8.29015 11.7018 11.1515C11.7018 14.0128 14.078 16.3882 16.9964 16.3882C19.9147 16.3882 22.2909 14.0187 22.2909 11.1573Z" fill="#227AEB" stroke="white" stroke-width="0.1"/>
<path d="M20.8911 19.8686L20.8911 19.8686L20.8921 19.8674C21.1779 19.5212 21.6416 19.4025 22.1059 19.5194C27.5758 21.3241 31.1134 25.7653 31.1191 30.7411C31.1191 31.3784 30.598 31.8995 29.9606 31.8995H4.03858C3.40123 31.8995 2.88008 31.3784 2.88008 30.741C2.88008 25.7652 6.41783 21.3239 11.888 19.5192C12.2947 19.4083 12.8158 19.5215 13.1014 19.8674L13.1013 19.8674L13.1023 19.8686L16.9591 24.2689L16.9967 24.3118L17.0343 24.2689L20.8911 19.8686ZM5.24965 29.5889L5.24126 29.6461H5.29912H28.7521H28.81L28.8016 29.5888C28.3186 26.3125 25.8291 23.4083 22.1381 21.9574L22.1054 21.9446L22.0822 21.971L17.8611 26.7935L17.8611 26.7934L17.8593 26.7957C17.4572 27.3135 16.5941 27.3135 16.192 26.7957L16.1921 26.7957L16.1901 26.7935L11.969 21.971L11.946 21.9447L11.9134 21.9573C8.16425 23.4082 5.73842 26.2548 5.24965 29.5889Z" fill="#227AEB" stroke="white" stroke-width="0.1"/>
</svg>
