<svg width="34" height="34" viewBox="0 0 34 34" fill="none" xmlns="http://www.w3.org/2000/svg">
<mask id="path-1-inside-1_217_1704" fill="white">
<path fill-rule="evenodd" clip-rule="evenodd" d="M27.6289 6.36027C26.2451 4.97402 24.5987 3.87482 22.7851 3.12637C20.9714 2.37791 19.0266 1.99508 17.0632 2.00005C8.83027 2.00005 2.12812 8.66873 2.12479 16.8659C2.12479 19.4857 2.81198 22.0425 4.11813 24.298L2 32L9.91845 29.9317C12.1088 31.1183 14.5627 31.7406 17.0565 31.7417H17.0632C25.2945 31.7417 31.9966 25.073 31.9999 16.8758C32.0056 14.9226 31.6222 12.9875 30.872 11.1826C30.1217 9.3777 29.0194 7.73868 27.6289 6.36027V6.36027ZM17.0632 29.2328H17.0582C14.8344 29.2331 12.6516 28.6376 10.7388 27.5089L10.2862 27.2407L5.58735 28.4678L6.84026 23.9088L6.54575 23.4418C5.30247 21.4719 4.64431 19.1922 4.64725 16.8659C4.65058 10.0531 10.2196 4.51053 17.0682 4.51053C18.6992 4.50692 20.3148 4.82531 21.8213 5.44725C23.3279 6.06919 24.6956 6.98233 25.8452 8.13384C27.001 9.27986 27.9171 10.6425 28.5405 12.143C29.164 13.6435 29.4824 15.2521 29.4775 16.8758C29.4742 23.6886 23.9051 29.2328 17.0632 29.2328ZM23.8735 19.9775C23.4991 19.7904 21.6655 18.8928 21.3228 18.7686C20.9817 18.6444 20.7337 18.5832 20.4842 18.9541C20.2346 19.325 19.5191 20.1613 19.3011 20.4097C19.0832 20.6581 18.8652 20.6879 18.4925 20.5024C18.1198 20.317 16.9168 19.9245 15.4908 18.6593C14.381 17.674 13.6323 16.4585 13.4143 16.0859C13.1963 15.7133 13.391 15.5129 13.579 15.3275C13.7471 15.1619 13.9517 14.8936 14.1381 14.6767C14.3244 14.4597 14.386 14.3057 14.5108 14.0573C14.6356 13.8089 14.574 13.592 14.4792 13.4065C14.386 13.2194 13.6389 11.3912 13.3278 10.6476C13.0266 9.92728 12.7188 10.0233 12.4892 10.0134C12.2514 10.0037 12.0134 9.9993 11.7754 10.0001C11.5861 10.0049 11.3999 10.0486 11.2284 10.1284C11.0569 10.2082 10.9038 10.3224 10.7787 10.4638C10.4359 10.8364 9.47253 11.734 9.47253 13.5622C9.47253 15.3904 10.8103 17.1573 10.9967 17.4057C11.183 17.6541 13.6289 21.405 17.3727 23.0146C18.2645 23.3971 18.96 23.6256 19.5008 23.7979C20.3943 24.081 21.2079 24.0396 21.8519 23.9453C22.569 23.8393 24.0599 23.0477 24.371 22.18C24.6821 21.3122 24.6822 20.5687 24.589 20.413C24.4958 20.2574 24.2445 20.163 23.8735 19.9775"/>
</mask>
<path fill-rule="evenodd" clip-rule="evenodd" d="M27.6289 6.36027C26.2451 4.97402 24.5987 3.87482 22.7851 3.12637C20.9714 2.37791 19.0266 1.99508 17.0632 2.00005C8.83027 2.00005 2.12812 8.66873 2.12479 16.8659C2.12479 19.4857 2.81198 22.0425 4.11813 24.298L2 32L9.91845 29.9317C12.1088 31.1183 14.5627 31.7406 17.0565 31.7417H17.0632C25.2945 31.7417 31.9966 25.073 31.9999 16.8758C32.0056 14.9226 31.6222 12.9875 30.872 11.1826C30.1217 9.3777 29.0194 7.73868 27.6289 6.36027V6.36027ZM17.0632 29.2328H17.0582C14.8344 29.2331 12.6516 28.6376 10.7388 27.5089L10.2862 27.2407L5.58735 28.4678L6.84026 23.9088L6.54575 23.4418C5.30247 21.4719 4.64431 19.1922 4.64725 16.8659C4.65058 10.0531 10.2196 4.51053 17.0682 4.51053C18.6992 4.50692 20.3148 4.82531 21.8213 5.44725C23.3279 6.06919 24.6956 6.98233 25.8452 8.13384C27.001 9.27986 27.9171 10.6425 28.5405 12.143C29.164 13.6435 29.4824 15.2521 29.4775 16.8758C29.4742 23.6886 23.9051 29.2328 17.0632 29.2328ZM23.8735 19.9775C23.4991 19.7904 21.6655 18.8928 21.3228 18.7686C20.9817 18.6444 20.7337 18.5832 20.4842 18.9541C20.2346 19.325 19.5191 20.1613 19.3011 20.4097C19.0832 20.6581 18.8652 20.6879 18.4925 20.5024C18.1198 20.317 16.9168 19.9245 15.4908 18.6593C14.381 17.674 13.6323 16.4585 13.4143 16.0859C13.1963 15.7133 13.391 15.5129 13.579 15.3275C13.7471 15.1619 13.9517 14.8936 14.1381 14.6767C14.3244 14.4597 14.386 14.3057 14.5108 14.0573C14.6356 13.8089 14.574 13.592 14.4792 13.4065C14.386 13.2194 13.6389 11.3912 13.3278 10.6476C13.0266 9.92728 12.7188 10.0233 12.4892 10.0134C12.2514 10.0037 12.0134 9.9993 11.7754 10.0001C11.5861 10.0049 11.3999 10.0486 11.2284 10.1284C11.0569 10.2082 10.9038 10.3224 10.7787 10.4638C10.4359 10.8364 9.47253 11.734 9.47253 13.5622C9.47253 15.3904 10.8103 17.1573 10.9967 17.4057C11.183 17.6541 13.6289 21.405 17.3727 23.0146C18.2645 23.3971 18.96 23.6256 19.5008 23.7979C20.3943 24.081 21.2079 24.0396 21.8519 23.9453C22.569 23.8393 24.0599 23.0477 24.371 22.18C24.6821 21.3122 24.6822 20.5687 24.589 20.413C24.4958 20.2574 24.2445 20.163 23.8735 19.9775" fill="#227AEB"/>
<path d="M17.0632 2.00005V2.20005L17.0637 2.20005L17.0632 2.00005ZM2.12479 16.8659L1.92479 16.8658V16.8659H2.12479ZM4.11813 24.298L4.31097 24.351L4.33318 24.2702L4.2912 24.1978L4.11813 24.298ZM2 32L1.80716 31.947L1.71527 32.2811L2.05054 32.1935L2 32ZM9.91845 29.9317L10.0137 29.7558L9.9443 29.7182L9.86791 29.7382L9.91845 29.9317ZM17.0565 31.7417L17.0565 31.9417H17.0565V31.7417ZM31.9999 16.8758L31.7999 16.8752V16.8757L31.9999 16.8758ZM17.0582 29.2328V29.0328H17.0582L17.0582 29.2328ZM10.7388 27.5089L10.6368 27.681L10.6371 27.6812L10.7388 27.5089ZM10.2862 27.2407L10.3882 27.0686L10.3164 27.0261L10.2356 27.0472L10.2862 27.2407ZM5.58735 28.4678L5.3945 28.4148L5.30269 28.7488L5.63788 28.6613L5.58735 28.4678ZM6.84026 23.9088L7.03311 23.9618L7.05648 23.8768L7.00942 23.8021L6.84026 23.9088ZM6.54575 23.4418L6.71492 23.3351L6.71488 23.3351L6.54575 23.4418ZM4.64725 16.8659L4.84725 16.8661V16.866L4.64725 16.8659ZM17.0682 4.51053V4.71053L17.0686 4.71053L17.0682 4.51053ZM25.8452 8.13384L25.7037 8.27515L25.7044 8.27586L25.8452 8.13384ZM29.4775 16.8758L29.2775 16.8752V16.8757L29.4775 16.8758ZM21.3228 18.7686L21.2543 18.9566L21.2546 18.9567L21.3228 18.7686ZM15.4908 18.6593L15.358 18.8089L15.3581 18.8089L15.4908 18.6593ZM13.579 15.3275L13.4386 15.185L13.4386 15.1851L13.579 15.3275ZM14.4792 13.4065L14.3001 13.4957L14.3011 13.4976L14.4792 13.4065ZM13.3278 10.6476L13.1432 10.7248L13.1433 10.7248L13.3278 10.6476ZM12.4892 10.0134L12.4978 9.81358L12.4973 9.81356L12.4892 10.0134ZM11.7754 10.0001L11.7746 9.8001L11.7703 9.80021L11.7754 10.0001ZM10.7787 10.4638L10.9259 10.5993L10.9285 10.5963L10.7787 10.4638ZM17.3727 23.0146L17.2937 23.1983L17.2938 23.1984L17.3727 23.0146ZM19.5008 23.7979L19.4401 23.9884L19.4404 23.9885L19.5008 23.7979ZM21.8519 23.9453L21.8809 24.1431L21.8811 24.1431L21.8519 23.9453ZM27.7704 6.21898C26.368 4.814 24.6994 3.70001 22.8614 2.94149L22.7088 3.31124C24.4981 4.04964 26.1223 5.13404 27.4874 6.50157L27.7704 6.21898ZM22.8614 2.94149C21.0234 2.18298 19.0524 1.79502 17.0627 1.80005L17.0637 2.20005C19.0008 2.19515 20.9195 2.57285 22.7088 3.31124L22.8614 2.94149ZM17.0632 1.80005C8.7207 1.80005 1.92816 8.55737 1.92479 16.8658L2.32479 16.866C2.32807 8.78008 8.93984 2.20005 17.0632 2.20005V1.80005ZM1.92479 16.8659C1.92479 19.5208 2.62123 22.1122 3.94506 24.3982L4.2912 24.1978C3.00273 21.9728 2.32479 19.4506 2.32479 16.8659H1.92479ZM3.92529 24.2449L1.80716 31.947L2.19284 32.053L4.31097 24.351L3.92529 24.2449ZM2.05054 32.1935L9.969 30.1252L9.86791 29.7382L1.94946 31.8065L2.05054 32.1935ZM9.82318 30.1075C12.0428 31.31 14.5294 31.9406 17.0565 31.9417L17.0566 31.5417C14.596 31.5406 12.1748 30.9266 10.0137 29.7558L9.82318 30.1075ZM17.0565 31.9417H17.0632V31.5417H17.0565V31.9417ZM17.0632 31.9417C25.4041 31.9417 32.1966 25.1843 32.1999 16.8759L31.7999 16.8757C31.7967 24.9616 25.1849 31.5417 17.0632 31.5417V31.9417ZM32.1999 16.8764C32.2057 14.8966 31.8171 12.9353 31.0566 11.1059L30.6873 11.2594C31.4273 13.0398 31.8055 14.9485 31.7999 16.8752L32.1999 16.8764ZM31.0566 11.1059C30.2962 9.27645 29.179 7.61524 27.7697 6.21824L27.4881 6.50232C28.8599 7.86211 29.9472 9.47896 30.6873 11.2594L31.0566 11.1059ZM17.0632 29.0328H17.0582V29.4328H17.0632V29.0328ZM17.0582 29.0328C14.8701 29.0331 12.7224 28.4472 10.8404 27.3367L10.6371 27.6812C12.5808 28.8281 14.7988 29.4331 17.0582 29.4328L17.0582 29.0328ZM10.8407 27.3369L10.3882 27.0686L10.1842 27.4127L10.6368 27.681L10.8407 27.3369ZM10.2356 27.0472L5.53681 28.2743L5.63788 28.6613L10.3367 27.4342L10.2356 27.0472ZM5.7802 28.5208L7.03311 23.9618L6.64741 23.8558L5.3945 28.4148L5.7802 28.5208ZM7.00942 23.8021L6.71492 23.3351L6.37658 23.5485L6.67109 24.0155L7.00942 23.8021ZM6.71488 23.3351C5.49178 21.3971 4.84436 19.1545 4.84725 16.8661L4.44725 16.8656C4.44426 19.2299 5.11315 21.5467 6.37662 23.5486L6.71488 23.3351ZM4.84725 16.866C4.85052 10.1645 10.3292 4.71053 17.0682 4.71053V4.31053C10.1101 4.31053 4.45063 9.94175 4.44725 16.8658L4.84725 16.866ZM17.0686 4.71053C18.6733 4.70698 20.2628 5.02023 21.745 5.63211L21.8977 5.26238C20.3667 4.63038 18.7251 4.30687 17.0677 4.31053L17.0686 4.71053ZM21.745 5.63211C23.2272 6.244 24.5727 7.14236 25.7037 8.27515L25.9867 7.99254C24.8184 6.82231 23.4286 5.89438 21.8977 5.26238L21.745 5.63211ZM25.7044 8.27586C26.8414 9.40327 27.7426 10.7437 28.3558 12.2197L28.7252 12.0663C28.0916 10.5413 27.1606 9.15645 25.986 7.99182L25.7044 8.27586ZM28.3558 12.2197C28.9691 13.6957 29.2824 15.2781 29.2775 16.8752L29.6775 16.8764C29.6825 15.2261 29.3588 13.5913 28.7252 12.0663L28.3558 12.2197ZM29.2775 16.8757C29.2742 23.5773 23.7955 29.0328 17.0632 29.0328V29.4328C24.0148 29.4328 29.6741 23.7999 29.6775 16.8759L29.2775 16.8757ZM23.9629 19.7986C23.7746 19.7045 23.2216 19.4328 22.6729 19.1692C22.1304 18.9086 21.5743 18.6471 21.3909 18.5806L21.2546 18.9567C21.414 19.0144 21.9461 19.2638 22.4997 19.5297C23.047 19.7927 23.598 20.0634 23.7841 20.1564L23.9629 19.7986ZM21.3912 18.5807C21.2264 18.5207 21.036 18.4553 20.8464 18.477C20.6352 18.5011 20.4646 18.6249 20.3182 18.8424L20.6501 19.0657C20.7533 18.9123 20.8315 18.8813 20.8919 18.8744C20.9739 18.865 21.078 18.8924 21.2543 18.9566L21.3912 18.5807ZM20.3182 18.8424C20.0772 19.2006 19.3711 20.0267 19.1508 20.2778L19.4515 20.5416C19.6671 20.2959 20.3919 19.4495 20.6501 19.0657L20.3182 18.8424ZM19.1508 20.2778C19.0612 20.3799 18.9937 20.4127 18.9311 20.4202C18.8602 20.4287 18.7549 20.4096 18.5816 20.3234L18.4034 20.6815C18.6028 20.7807 18.7928 20.8395 18.9785 20.8174C19.1726 20.7942 19.3231 20.6879 19.4515 20.5416L19.1508 20.2778ZM18.5816 20.3234C18.1894 20.1282 17.0236 19.7519 15.6236 18.5097L15.3581 18.8089C16.81 20.0971 18.0501 20.5057 18.4034 20.6815L18.5816 20.3234ZM15.6236 18.5098C14.5375 17.5455 13.8015 16.3517 13.5869 15.9849L13.2417 16.1869C13.463 16.5653 14.2245 17.8025 15.358 18.8089L15.6236 18.5098ZM13.5869 15.9849C13.5018 15.8395 13.512 15.7592 13.5317 15.7067C13.5586 15.6348 13.62 15.568 13.7195 15.4699L13.4386 15.1851C13.35 15.2724 13.22 15.3985 13.1571 15.5663C13.0869 15.7536 13.1088 15.9597 13.2417 16.1869L13.5869 15.9849ZM13.7194 15.4699C13.8947 15.2972 14.1169 15.0082 14.2898 14.807L13.9864 14.5463C13.7865 14.779 13.5994 15.0266 13.4386 15.185L13.7194 15.4699ZM14.2898 14.807C14.4959 14.567 14.5694 14.3862 14.6895 14.1471L14.3321 13.9675C14.2026 14.2252 14.1529 14.3524 13.9864 14.5463L14.2898 14.807ZM14.6895 14.1471C14.8553 13.817 14.7656 13.5274 14.6572 13.3155L14.3011 13.4976C14.3824 13.6566 14.4158 13.8008 14.3321 13.9675L14.6895 14.1471ZM14.6582 13.3174C14.6157 13.232 14.4098 12.7386 14.17 12.1593C13.933 11.5866 13.668 10.9427 13.5123 10.5704L13.1433 10.7248C13.2986 11.0962 13.5628 11.7381 13.8004 12.3122C14.0353 12.8797 14.2495 13.3939 14.3001 13.4957L14.6582 13.3174ZM13.5123 10.5705C13.3528 10.189 13.1741 9.98048 12.9666 9.88307C12.775 9.79312 12.5656 9.81651 12.4978 9.81358L12.4805 10.2132C12.6424 10.2202 12.7016 10.2006 12.7966 10.2452C12.8757 10.2823 13.0016 10.3859 13.1432 10.7248L13.5123 10.5705ZM12.4973 9.81356C12.2565 9.80376 12.0156 9.79929 11.7746 9.80015L11.7761 10.2001C12.0111 10.1993 12.2462 10.2037 12.481 10.2132L12.4973 9.81356ZM11.7703 9.80021C11.5536 9.8057 11.3404 9.85569 11.144 9.94706L11.3127 10.3097C11.4593 10.2415 11.6186 10.2042 11.7804 10.2001L11.7703 9.80021ZM11.144 9.94706C10.9476 10.0384 10.7722 10.1692 10.6289 10.3313L10.9285 10.5963C11.0353 10.4755 11.1661 10.3779 11.3127 10.3097L11.144 9.94706ZM10.6315 10.3284C10.2879 10.7019 9.27253 11.6502 9.27253 13.5622H9.67253C9.67253 11.8177 10.5839 10.9709 10.9259 10.5992L10.6315 10.3284ZM9.27253 13.5622C9.27253 14.5215 9.6223 15.4532 9.98655 16.1673C10.3523 16.8842 10.7416 17.399 10.8367 17.5258L11.1566 17.2857C11.0654 17.164 10.6926 16.6712 10.3429 15.9855C9.99165 15.297 9.67253 14.4311 9.67253 13.5622H9.27253ZM10.8367 17.5258C11.0127 17.7604 13.4908 21.5633 17.2937 23.1983L17.4517 22.8309C13.7671 21.2466 11.3533 17.5479 11.1566 17.2857L10.8367 17.5258ZM17.2938 23.1984C18.1943 23.5846 18.8968 23.8154 19.4401 23.9884L19.5615 23.6073C19.0232 23.4359 18.3347 23.2096 17.4515 22.8308L17.2938 23.1984ZM19.4404 23.9885C20.3738 24.2844 21.2211 24.2399 21.8809 24.1431L21.8229 23.7474C21.1948 23.8394 20.4148 23.8777 19.5612 23.6072L19.4404 23.9885ZM21.8811 24.1431C22.2771 24.0846 22.856 23.8454 23.3712 23.5169C23.8815 23.1915 24.3804 22.7463 24.5593 22.2475L24.1827 22.1125C24.0505 22.4813 23.6483 22.8658 23.1562 23.1796C22.6689 23.4903 22.1438 23.6999 21.8226 23.7474L21.8811 24.1431ZM24.5593 22.2475C24.7207 21.7972 24.8021 21.3775 24.8309 21.0468C24.8452 20.8816 24.8467 20.7357 24.8374 20.6171C24.8289 20.5095 24.8097 20.3924 24.7606 20.3103L24.4174 20.5157C24.4148 20.5115 24.4305 20.5457 24.4386 20.6484C24.4458 20.7402 24.4453 20.8635 24.4324 21.0122C24.4066 21.3091 24.3324 21.695 24.1827 22.1125L24.5593 22.2475ZM24.7606 20.3103C24.6845 20.1832 24.5561 20.0993 24.4316 20.0311C24.3073 19.9629 24.1368 19.8855 23.9629 19.7986L23.7841 20.1564C23.9812 20.2549 24.1219 20.3175 24.2393 20.3818C24.3564 20.446 24.4003 20.4872 24.4174 20.5157L24.7606 20.3103Z" fill="white" mask="url(#path-1-inside-1_217_1704)"/>
</svg>
