<svg width="56" height="56" viewBox="0 0 56 56" fill="none" xmlns="http://www.w3.org/2000/svg">
<path d="M22.4826 20.4522H22.4825L22.4827 20.4572C22.5406 21.6145 21.6154 22.5435 20.4522 22.5435H2.13043C1.02914 22.5435 0.1 21.6143 0.1 20.513C0.1 9.24634 9.24673 0.1 20.4522 0.1C21.5535 0.1 22.4826 1.02914 22.4826 2.13043V20.4522ZM4.34428 18.3091L4.32996 18.4217H4.44348H18.3826H18.4826V18.3217V4.44348V4.33008L18.3701 4.34426C11.0815 5.26299 5.2631 11.0811 4.34428 18.3091ZM28.5478 28.6478H28.6478V28.5478V6.2087C28.6478 4.92479 29.6987 3.87391 30.9826 3.87391C44.4973 3.87391 55.9 15.7555 55.9 29.887C55.9 44.1969 44.1969 55.9 29.887 55.9C15.512 55.9 3.87391 44.7408 3.87391 30.9826C3.87391 29.6987 4.92479 28.6478 6.2087 28.6478H28.5478ZM8.82609 33.3174H8.71247L8.7269 33.4301C10.012 43.4658 19.0052 51.2304 29.887 51.2304C41.6291 51.2304 51.2304 41.6291 51.2304 29.887C51.2304 19.1876 43.2831 10.0121 33.4303 8.72693L33.3174 8.7122V8.82609V30.9826C33.3174 32.2665 32.2665 33.3174 30.9826 33.3174H8.82609Z" fill="white" stroke="white" stroke-width="0.2"/>
</svg>
