<svg width="23" height="17" viewBox="0 0 23 17" fill="none" xmlns="http://www.w3.org/2000/svg">
<path d="M21.5218 2.1386C20.7424 1.21214 19.3035 0.834229 16.5555 0.834229H6.58014C3.76921 0.834229 2.3059 1.23652 1.52947 2.22287C0.772461 3.18457 0.772461 4.60156 0.772461 6.56271V10.3007C0.772461 14.1 1.67064 16.0291 6.58014 16.0291H16.5556C18.9386 16.0291 20.2592 15.6956 21.1135 14.878C21.9896 14.0396 22.3634 12.6706 22.3634 10.3007V6.56271C22.3634 4.49451 22.3048 3.06917 21.5218 2.1386ZM14.6339 8.94774L10.1041 11.3152C10.0029 11.3681 9.89211 11.3943 9.78151 11.3943C9.65628 11.3943 9.53133 11.3606 9.42066 11.2936C9.21228 11.1674 9.08503 10.9415 9.08503 10.6979V5.97823C9.08503 5.73502 9.21193 5.50936 9.4199 5.38302C9.62794 5.25667 9.88668 5.24804 10.1025 5.36017L14.6323 7.71233C14.8628 7.83198 15.0075 8.0699 15.0078 8.32948C15.0081 8.58927 14.864 8.82753 14.6339 8.94774Z" fill="#FF0000"/>
</svg>
